# xmcd
#
# Track frame offsets:
#	150
#	13695
#	23887
#	39402
#	53987
#	65922
#	78270
#	97285
#	111105
#	118310
#	153272
#	164380
#	178070
#	188607
#	215017
#	224832
#	236842
#	246287
#	259147
#	268915
#	279430
#	302685
#	306815
#	317737
#	332142
#
# Disc length: 4622
#
# Revision: 2
# Processed by: cddbd v1.5.1PL0 Copyright (c) Steve Scherf et al.
# Submitted via: OrangeCD 4.2
# Normalized: r0:DSETVAR1,TDELIM( - ),TSWAP
#
DISCID=7f120c19
DTITLE=Various Artist - Blues and  Soul Greats 4
DYEAR=1900
DGENRE=Blues
TTITLE0=Muddy Waters - Got My Mojo Working
TTITLE1=Memphis Slim - The Comeback
TTITLE2=Billie Holliday - Solitude
TTITLE3=Ella Fitzgerald - The Dipsy Doodle
TTITLE4=John Lee Hooker - Whiskey and Wimmen
TTITLE5=Lightnin' Hopkins - Evil Hearted Woman
TTITLE6=Howlin' Wolf - Say It For Me
TTITLE7=Mississippi John Hurt - Spike Driver's Blues
TTITLE8=Leadbelly - Medley: Poor Howard Is Dead and Gone, Green Corn
TTITLE9=Pinetop Perkins - Sunnyland Slim
TTITLE10=Jimmy Reed - You're Something Else
TTITLE11=Lightning Slim - Good Morning Heartaches
TTITLE12=Billie Holiday - T'aint Nobody's Businness If I Do
TTITLE13=Muddy Waters - Garbagr Man
TTITLE14=Big Joe Williams - 44 Blues
TTITLE15=Memphis Slim - Sassy Mae
TTITLE16=Canned Heat - Big Road Blues
TTITLE17=Ella Fitzgerald - Lullaby Of Birdland
TTITLE18=John Lee Hooker - Dusty Road
TTITLE19=Lightnin' Hopkins - My Little Kewpi Doll
TTITLE20=Howlin' Wolf - I Did'nt Mean To Hurt Your Feelings
TTITLE21=Mississippi John Hurt - C-h-i-c-k-e-n Blues
TTITLE22=Jimmy Reed - Little Rain
TTITLE23=Lightning Slim - Things I Used To Do
TTITLE24=Muddy Waters - Screamin' and Cryin'
EXTD=
EXTT0=
EXTT1=
EXTT2=
EXTT3=
EXTT4=
EXTT5=
EXTT6=
EXTT7=
EXTT8=
EXTT9=
EXTT10=
EXTT11=
EXTT12=
EXTT13=
EXTT14=
EXTT15=
EXTT16=
EXTT17=
EXTT18=
EXTT19=
EXTT20=
EXTT21=
EXTT22=
EXTT23=
EXTT24=
PLAYORDER=
